<?xml version="1.0" encoding="UTF-8"?> <svg xmlns="http://www.w3.org/2000/svg" width="120" height="120" viewBox="0 0 120 120" fill="none"> <circle cx="60" cy="60" r="60" fill="#5857FF"></circle> <mask id="mask0_109_89" style="mask-type:alpha" maskUnits="userSpaceOnUse" x="35" y="32" width="56" height="59"> <rect x="35" y="32" width="56" height="59" fill="#D9D9D9"></rect> </mask> <g mask="url(#mask0_109_89)"> <path d="M75.1694 60.0201L48.8856 72.4946V47.7368L75.1694 60.0201ZM87.5257 56.6935C86.8728 55.6315 85.9216 54.7854 84.7909 54.261L48.6072 37.3538C47.6433 36.9022 46.581 36.7015 45.5189 36.7701C44.4568 36.8388 43.4292 37.1746 42.5314 37.7464C41.6336 38.3183 40.8947 39.1077 40.3831 40.0415C39.8715 40.9752 39.6038 42.0231 39.6049 43.0879V77.1601C39.6051 78.2276 39.8751 79.2776 40.3899 80.2126C40.9047 81.1476 41.6475 81.9371 42.5493 82.5077C43.451 83.0783 44.4823 83.4114 45.5473 83.4761C46.6123 83.5408 47.6763 83.3349 48.6404 82.8776L84.8242 65.7126C85.6237 65.3325 86.3347 64.7889 86.9113 64.1169C87.488 63.4449 87.9174 62.6595 88.1719 61.8113C88.4265 60.963 88.5005 60.0708 88.3892 59.1922C88.2779 58.3136 87.9837 57.468 87.5257 56.7102" fill="#EBEBEB"></path> </g> </svg> 